<svg xmlns="http://www.w3.org/2000/svg" viewBox="0 0 1920 1080" role="img" aria-label="Spacecraft on Mars">
  <defs>
    <linearGradient id="sky" x1="0" y1="0" x2="0" y2="1">
      <stop offset="0" stop-color="#02040b"/>
      <stop offset=".55" stop-color="#0b1220"/>
      <stop offset="1" stop-color="#140804"/>
    </linearGradient>
    <radialGradient id="mars" cx=".78" cy=".48" r=".28">
      <stop offset="0" stop-color="#dd8d59"/>
      <stop offset=".55" stop-color="#8f3e28"/>
      <stop offset="1" stop-color="#2a100d" stop-opacity="0"/>
    </radialGradient>
  </defs>
  <rect width="1920" height="1080" fill="url(#sky)"/>
  <circle cx="1480" cy="276" r="210" fill="url(#mars)" opacity=".9"/>
  <g fill="#fff" opacity=".72">
    <circle cx="240" cy="180" r="1.6"/><circle cx="420" cy="100" r="1.2"/><circle cx="690" cy="260" r="1.4"/>
    <circle cx="1050" cy="150" r="1.8"/><circle cx="1730" cy="120" r="1.1"/>
  </g>
  <path d="M0 675c260-90 470-88 665-42 240 57 445 74 670 12 205-56 380-33 585 47v388H0Z" fill="#4c1f16"/>
  <path d="M0 780c410-95 690-38 910 16 305 76 610 4 1010-55v339H0Z" fill="#23100d"/>
  <ellipse cx="1190" cy="735" rx="165" ry="36" fill="#ff8b3d" opacity=".24"/>
  <path d="M1142 402c42-74 90-74 132 0v238c0 48-30 86-66 86s-66-38-66-86V402Z" fill="#dcd9d0"/>
  <path d="M1208 336c28 25 50 63 66 113h-132c16-50 38-88 66-113Z" fill="#f6f0e6"/>
  <path d="M1142 495h132v48h-132Z" fill="#29313a"/>
  <path d="M1142 602l-72 94h72v-94Zm132 0 72 94h-72v-94Z" fill="#b9b4aa"/>
  <rect x="0" y="0" width="840" height="1080" fill="#000" opacity=".38"/>
</svg>
