<svg xmlns="http://www.w3.org/2000/svg" viewBox="0 0 1920 1080" role="img" aria-label="Astronaut viewing Earth from orbit">
  <defs>
    <radialGradient id="earth" cx=".78" cy=".48" r=".36">
      <stop offset="0" stop-color="#bfe5ff"/>
      <stop offset=".28" stop-color="#2e87bf"/>
      <stop offset=".58" stop-color="#143e71"/>
      <stop offset="1" stop-color="#020712" stop-opacity="0"/>
    </radialGradient>
    <radialGradient id="window" cx=".67" cy=".47" r=".46">
      <stop offset="0" stop-color="#5aa6d8" stop-opacity=".18"/>
      <stop offset=".7" stop-color="#091520" stop-opacity=".86"/>
      <stop offset="1" stop-color="#000"/>
    </radialGradient>
  </defs>
  <rect width="1920" height="1080" fill="#02050c"/>
  <circle cx="1360" cy="500" r="350" fill="url(#earth)"/>
  <path d="M1010 130c325 50 575 300 575 625 0 125-37 236-100 325h435V0h-910Z" fill="url(#window)"/>
  <g fill="#fff" opacity=".65">
    <circle cx="210" cy="130" r="1.3"/><circle cx="420" cy="270" r="1.2"/><circle cx="680" cy="170" r="1.5"/>
    <circle cx="890" cy="310" r="1.1"/><circle cx="1710" cy="180" r="1.4"/>
  </g>
  <path d="M1200 476c76 0 138 62 138 138v270h-276V614c0-76 62-138 138-138Z" fill="#dedbd1"/>
  <circle cx="1200" cy="405" r="104" fill="#eee9dc"/>
  <circle cx="1200" cy="405" r="76" fill="#101924"/>
  <path d="M1154 376c68-34 126-18 168 48-18 42-58 70-104 70-58 0-88-34-64-118Z" fill="#3b8ab8" opacity=".65"/>
  <path d="M1062 706l-150 198h150V706Zm276 0 150 198h-150V706Z" fill="#b8b7b0"/>
  <rect x="0" y="0" width="850" height="1080" fill="#000" opacity=".42"/>
</svg>
