<svg xmlns="http://www.w3.org/2000/svg" viewBox="0 0 1920 1080" role="img" aria-label="Satellite constellation above Earth">
  <defs>
    <radialGradient id="orbit" cx=".72" cy=".44" r=".54">
      <stop offset="0" stop-color="#6fb9ff" stop-opacity=".18"/>
      <stop offset=".55" stop-color="#102238" stop-opacity=".72"/>
      <stop offset="1" stop-color="#000"/>
    </radialGradient>
    <linearGradient id="earth" x1="0" y1="0" x2="1" y2="0">
      <stop offset="0" stop-color="#07101c"/>
      <stop offset=".55" stop-color="#17456d"/>
      <stop offset="1" stop-color="#071018"/>
    </linearGradient>
  </defs>
  <rect width="1920" height="1080" fill="#02050b"/>
  <rect width="1920" height="1080" fill="url(#orbit)"/>
  <path d="M350 1080c220-210 560-340 970-340 260 0 466 50 600 127v213Z" fill="url(#earth)"/>
  <path d="M490 1012c255-155 590-224 960-169" stroke="#94d7ff" stroke-opacity=".28" stroke-width="7" fill="none"/>
  <g stroke="#d9f2ff" stroke-opacity=".36" stroke-width="3" fill="none">
    <path d="M760 325c280 190 590 208 980 54"/>
    <path d="M690 488c330 150 678 142 1030-20"/>
    <path d="M840 638c250 88 520 74 780-42"/>
  </g>
  <g fill="#eaf8ff">
    <g transform="translate(1390 340) rotate(-18)">
      <rect x="-78" y="-12" width="156" height="24" rx="4"/>
      <rect x="-19" y="-38" width="38" height="76" rx="6" fill="#b9d7e8"/>
      <rect x="-170" y="-30" width="80" height="60" rx="4" fill="#4f8db5"/>
      <rect x="90" y="-30" width="80" height="60" rx="4" fill="#4f8db5"/>
    </g>
    <g transform="translate(1160 515) scale(.62) rotate(12)">
      <rect x="-78" y="-12" width="156" height="24" rx="4"/>
      <rect x="-19" y="-38" width="38" height="76" rx="6" fill="#b9d7e8"/>
      <rect x="-170" y="-30" width="80" height="60" rx="4" fill="#4f8db5"/>
      <rect x="90" y="-30" width="80" height="60" rx="4" fill="#4f8db5"/>
    </g>
    <g transform="translate(1570 600) scale(.5) rotate(-22)">
      <rect x="-78" y="-12" width="156" height="24" rx="4"/>
      <rect x="-19" y="-38" width="38" height="76" rx="6" fill="#b9d7e8"/>
      <rect x="-170" y="-30" width="80" height="60" rx="4" fill="#4f8db5"/>
      <rect x="90" y="-30" width="80" height="60" rx="4" fill="#4f8db5"/>
    </g>
  </g>
  <g fill="#fff" opacity=".72">
    <circle cx="260" cy="160" r="1.4"/><circle cx="520" cy="240" r="1.1"/><circle cx="860" cy="120" r="1.5"/>
    <circle cx="1120" cy="230" r="1.2"/><circle cx="1760" cy="180" r="1.3"/>
  </g>
  <rect x="0" y="0" width="850" height="1080" fill="#000" opacity=".42"/>
</svg>
