<svg xmlns="http://www.w3.org/2000/svg" viewBox="0 0 1920 1080" role="img" aria-label="Rocket launching at night">
  <defs>
    <linearGradient id="sky" x1="0" y1="0" x2="1" y2="1">
      <stop offset="0" stop-color="#02040a"/>
      <stop offset=".48" stop-color="#12202a"/>
      <stop offset="1" stop-color="#050505"/>
    </linearGradient>
    <radialGradient id="flame" cx=".55" cy=".76" r=".28">
      <stop offset="0" stop-color="#fff7d6"/>
      <stop offset=".22" stop-color="#ff9a31"/>
      <stop offset=".58" stop-color="#923510" stop-opacity=".7"/>
      <stop offset="1" stop-color="#000" stop-opacity="0"/>
    </radialGradient>
    <filter id="blur"><feGaussianBlur stdDeviation="16"/></filter>
  </defs>
  <rect width="1920" height="1080" fill="url(#sky)"/>
  <g opacity=".7" fill="#fff">
    <circle cx="310" cy="130" r="1.8"/><circle cx="460" cy="220" r="1.2"/><circle cx="740" cy="120" r="1.5"/>
    <circle cx="1120" cy="210" r="1.4"/><circle cx="1450" cy="150" r="2"/><circle cx="1710" cy="260" r="1.2"/>
  </g>
  <ellipse cx="1040" cy="870" rx="520" ry="180" fill="#b6c3c8" opacity=".28" filter="url(#blur)"/>
  <ellipse cx="1065" cy="830" rx="300" ry="120" fill="url(#flame)"/>
  <path d="M1015 725c-80 35-230 65-390 42-120-18-270 4-420 72v241h1715V844c-185-45-345-58-505-30-170 29-286-13-400-89Z" fill="#d7d9d5" opacity=".18"/>
  <path d="M992 250c54-104 120-104 174 0v432c0 60-39 110-87 110s-87-50-87-110V250Z" fill="#e8e7de"/>
  <path d="M1079 172c33 29 61 76 87 142H992c26-66 54-113 87-142Z" fill="#f8f7f0"/>
  <path d="M992 365h174v62H992z" fill="#252b30" opacity=".9"/>
  <path d="M1006 520h146v148c0 48-33 88-73 88s-73-40-73-88V520Z" fill="#c6c7c2"/>
  <path d="M992 610l-88 134h88V610Zm174 0 88 134h-88V610Z" fill="#b9bab5"/>
  <path d="M1040 792h78l-39 205-39-205Z" fill="#ff7f23"/>
  <path d="M1058 792h42l-21 145-21-145Z" fill="#fff4bd"/>
  <rect x="0" y="0" width="820" height="1080" fill="#000" opacity=".35"/>
</svg>
