<svg xmlns="http://www.w3.org/2000/svg" viewBox="0 0 1920 1080" role="img" aria-label="Reusable rocket technology in a hangar">
  <defs>
    <linearGradient id="hangar" x1="0" y1="0" x2="1" y2="1">
      <stop offset="0" stop-color="#05070b"/>
      <stop offset=".5" stop-color="#263341"/>
      <stop offset="1" stop-color="#080809"/>
    </linearGradient>
    <radialGradient id="light" cx=".72" cy=".26" r=".48">
      <stop offset="0" stop-color="#dbe8f0" stop-opacity=".65"/>
      <stop offset=".38" stop-color="#93b5c9" stop-opacity=".25"/>
      <stop offset="1" stop-color="#000" stop-opacity="0"/>
    </radialGradient>
  </defs>
  <rect width="1920" height="1080" fill="url(#hangar)"/>
  <rect width="1920" height="1080" fill="url(#light)"/>
  <path d="M760 130h930l155 950H640Z" fill="#111820" opacity=".78"/>
  <g stroke="#d7e3e9" stroke-opacity=".2" stroke-width="4">
    <path d="M820 140 680 1080M1120 140 1015 1080M1420 140 1510 1080M1690 140 1840 1080"/>
    <path d="M700 310h1120M675 520h1170M650 755h1210"/>
  </g>
  <path d="M1240 210c68-116 142-116 210 0v548c0 92-47 164-105 164s-105-72-105-164V210Z" fill="#e5e3da"/>
  <path d="M1345 112c42 36 77 92 105 168h-210c28-76 63-132 105-168Z" fill="#faf8ef"/>
  <path d="M1240 380h210v76h-210Z" fill="#222a31"/>
  <path d="M1258 614h174v144c0 65-39 118-87 118s-87-53-87-118V614Z" fill="#babbb6"/>
  <path d="M900 762h230c70 0 126 57 126 126v50H770v-46c0-72 58-130 130-130Z" fill="#cfd3d5" opacity=".88"/>
  <path d="M940 792h286" stroke="#18212a" stroke-width="16" opacity=".75"/>
  <rect x="0" y="0" width="840" height="1080" fill="#000" opacity=".38"/>
</svg>
